<svg xmlns="http://www.w3.org/2000/svg" width="64" height="52" viewBox="0 0 64 52"><defs><style>.a{fill:#fff;}</style></defs><path d="M57,163a26,26,0,1,1,26.421-26A26.243,26.243,0,0,1,57,163Zm0-51.218A25.221,25.221,0,1,0,82.625,137,25.453,25.453,0,0,0,57,111.782Zm0,49.651A24.436,24.436,0,1,1,81.827,137,24.661,24.661,0,0,1,57,161.433Zm0-48.084A23.654,23.654,0,1,0,81.032,137,23.872,23.872,0,0,0,57,113.349Z" transform="translate(-24.999 -111)"/><path d="M54.348,229.743V214.055a1.281,1.281,0,0,0-1.305-1.309H34.1a14.806,14.806,0,0,0-22.975,0H-7.195A1.279,1.279,0,0,0-8.5,214.055v15.688a1.281,1.281,0,0,0,1.305,1.309H10.712a14.811,14.811,0,0,0,23.8,0H53.043a1.279,1.279,0,0,0,1.305-1.309Z" transform="translate(9.076 -195.661)"/><path d="M18.686,233.694A15.285,15.285,0,0,1,6.5,227.7H-11.126A1.825,1.825,0,0,1-13,225.821V210.127a1.824,1.824,0,0,1,1.874-1.88H6.93a15.374,15.374,0,0,1,23.513,0H49.126A1.825,1.825,0,0,1,51,210.127v15.693a1.824,1.824,0,0,1-1.874,1.88H30.869A15.284,15.284,0,0,1,18.686,233.694Zm-29.812-25.256a1.639,1.639,0,0,0-1.684,1.69v15.693a1.64,1.64,0,0,0,1.684,1.69H6.6l.029.037a15.19,15.19,0,0,0,24.122,0l.029-.037h18.35a1.639,1.639,0,0,0,1.684-1.69V210.127a1.64,1.64,0,0,0-1.684-1.69H30.354l-.029-.034a15.185,15.185,0,0,0-23.279,0l-.028.034Zm29.812,24.78a14.8,14.8,0,0,1-11.948-5.993H-11.126a1.268,1.268,0,0,1-1.226-.707,1.755,1.755,0,0,1-.173-.7V210.127a1.273,1.273,0,0,1,.7-1.23,1.741,1.741,0,0,1,.695-.174H7.153a14.9,14.9,0,0,1,23.069,0h18.9a1.268,1.268,0,0,1,1.226.707,1.758,1.758,0,0,1,.173.7v15.693a1.273,1.273,0,0,1-.7,1.23,1.742,1.742,0,0,1-.695.174H30.634A14.8,14.8,0,0,1,18.686,233.217ZM7.2,208.914H-11.126a1.551,1.551,0,0,0-.61.154,1.092,1.092,0,0,0-.6,1.059v15.693a1.564,1.564,0,0,0,.153.612,1.088,1.088,0,0,0,1.056.6H6.833l.028.038a14.718,14.718,0,0,0,23.648,0l.029-.038H49.126a1.552,1.552,0,0,0,.61-.153,1.093,1.093,0,0,0,.6-1.06V210.127a1.566,1.566,0,0,0-.153-.612,1.088,1.088,0,0,0-1.056-.6H30.131l-.029-.035a14.712,14.712,0,0,0-22.832,0l-.029.035Zm11.489,23.829a14.331,14.331,0,0,1-11.6-5.84l-.114-.153h-18.1a.872.872,0,0,1-.926-.928v-15.7a.873.873,0,0,1,.925-.929h18.5l.114-.14a14.429,14.429,0,0,1,22.393,0l.114.14H49.125a.872.872,0,0,1,.926.928v15.7a.873.873,0,0,1-.925.929H30.4l-.114.153A14.33,14.33,0,0,1,18.686,232.743Zm-29.812-23.355a.686.686,0,0,0-.736.739v15.693a.686.686,0,0,0,.736.739h18.2l.171.229a14.245,14.245,0,0,0,22.89,0l.171-.229H49.126a.686.686,0,0,0,.736-.739V210.127a.686.686,0,0,0-.736-.739H29.906l-.171-.209a14.239,14.239,0,0,0-22.1,0l-.171.209Z" transform="translate(13 -191.738)"/><path class="a" d="M131.211,273.036c4.343,0,8.151-3.081,8.151-8.685s-3.809-8.685-8.151-8.685-8.151,3.081-8.151,8.685,3.809,8.685,8.151,8.685Zm0-2.62c-2.5,0-4.27-1.844-4.27-5.992,0-4.173,1.771-6.089,4.27-6.089,2.475,0,4.27,1.917,4.27,6.089,0,4.149-1.8,5.992-4.27,5.992Zm10.359,2.426h11.451v-2.669h-7.715v-4.658h5.337v-2.6h-5.337V258.6h7.448V255.86H141.571v16.982Z" transform="translate(-106.041 -237.983)"/><path d="M115.717,157.7l.6-.57-.544-1.107,1.129-1.076,1.089.587.722-.689-.187-.2-4.12-2.089-.77.734,1.9,4.21.187.2Zm-1.061-3.947.01-.009,1.578.851-.8.766-.785-1.608Zm4.537.8.884-.53-.859-1.434.408-.245c1.021-.611,1.351-1.372.838-2.228s-1.33-.921-2.333-.32l-1.315.788,2.377,3.968Zm-1.113-3.863.408-.245c.561-.336.838-.209,1.092.216s.227.765-.311,1.088l-.408.245-.781-1.3Zm4.547,1.924.978-.327-.53-1.586.451-.151c1.128-.377,1.614-1.049,1.3-2s-1.1-1.186-2.21-.815l-1.454.486,1.467,4.387Zm-.255-4.012.451-.151c.62-.208.863-.024,1.02.446s.057.8-.538,1l-.451.151-.482-1.441ZM129,151.17l.939-.1-.029-.269-1.153-1.623a1.3,1.3,0,0,0,.6-1.335c-.1-.887-.783-1.278-1.913-1.155l-1.544.167.5,4.6,1.025-.111-.2-1.8.6-.065L129,151.17Zm-2-3.7.493-.053c.539-.059.787.147.836.594s-.149.714-.687.773l-.493.053L127,147.471Zm5.447,3.933a2.371,2.371,0,1,0-1.887-2.639,2.191,2.191,0,0,0,1.887,2.639Zm.094-.707c-.675-.09-1.086-.652-.936-1.772s.7-1.58,1.373-1.49,1.084.672.933,1.8-.7,1.553-1.37,1.464Zm3.629,1.57.982.393,3.028-3.48.1-.252-.792-.316-2.309,2.749-.012,0,.229-3.581-.914-.366-.1.252-.211,4.606Zm2.857,1.278,2.583,1.748.408-.6-1.741-1.178.711-1.051,1.2.815.4-.586-1.2-.815.659-.974,1.68,1.137.419-.618-2.523-1.708-2.593,3.831Zm3.08,2.154.977,1.05a2.139,2.139,0,0,0,3.382.211c1.161-1.08,1.08-2.205.023-3.343l-.995-1.069L142.11,155.7Zm1.234.26,2.313-2.151.275.3c.657.707.64,1.318-.193,2.093s-1.468.761-2.12.059l-.274-.3Z" transform="translate(-97.838 -142.098)"/><path d="M96.6,411.96l.505.654,1.157-.426.954,1.234-.7,1.023.61.79.214-.166,2.5-3.881-.651-.842-4.384,1.449-.214.166Zm4.036-.646.008.01-1.01,1.482-.679-.879,1.68-.614Zm-.215,5.3.828.614,1-1.342.382.284c.955.709,1.784.723,2.379-.078s.342-1.581-.6-2.278l-1.231-.914-2.756,3.715Zm3.143-2.506.382.284c.525.39.514.694.218,1.092s-.62.5-1.124.129l-.382-.283.906-1.221Zm1.162,5.558.958.381.617-1.554.442.176c1.106.44,1.91.24,2.279-.687s-.076-1.616-1.163-2.048l-1.425-.566-1.708,4.3Zm2.393-3.23.442.176c.608.242.675.538.492,1s-.47.645-1.053.413l-.442-.176.561-1.413Zm5.139,5.429.937.12.034-.269-.744-1.847a1.3,1.3,0,0,0,.894-1.158c.113-.885-.464-1.425-1.592-1.569l-1.541-.2-.586,4.589,1.023.131.229-1.8.6.076.748,1.921ZM111.18,417.8l.492.063c.538.069.731.326.674.772s-.311.66-.848.591l-.492-.063.174-1.363Zm5.863,4.131a2.37,2.37,0,1,0-2.5-2.066,2.191,2.191,0,0,0,2.5,2.066Zm-.09-.708c-.675.086-1.218-.351-1.361-1.472s.269-1.706.944-1.793,1.22.371,1.364,1.5-.278,1.681-.947,1.766Zm5.1-.487.973-.413-.305-4.6-.106-.249-.785.333.3,3.578-.012.005-2.362-2.7-.906.385.106.249,3.1,3.416Zm4.031-1.905,2.46-1.917-.447-.573-1.658,1.292-.78-1,1.147-.894-.435-.557-1.147.893-.723-.928,1.6-1.247-.459-.589-2.4,1.873,2.844,3.648Zm3.907-3.239.891-1.124a2.139,2.139,0,0,0-.3-3.376c-1.243-.985-2.343-.735-3.308.483l-.907,1.145,3.626,2.873Zm.071-1.26-2.476-1.962.25-.316c.6-.756,1.207-.832,2.1-.126s.974,1.336.378,2.087l-.25.316Z" transform="translate(-82.946 -373.662)"/></svg>